<?xml version="1.0" standalone="no"?>
<!DOCTYPE svg PUBLIC "-//W3C//DTD SVG 20010904//EN"
 "http://www.w3.org/TR/2001/REC-SVG-20010904/DTD/svg10.dtd">
<svg version="1.0" xmlns="http://www.w3.org/2000/svg"
 width="1834.000000pt" height="847.000000pt" viewBox="0 0 1834.000000 847.000000"
 preserveAspectRatio="xMidYMid meet">

<g transform="translate(0.000000,847.000000) scale(0.100000,-0.100000)"
fill="#000000" stroke="none">
<path d="M1812 8438 c-8 -8 -12 -52 -12 -130 l0 -118 175 0 175 0 0 118 c0 78
-4 122 -12 130 -8 8 -59 12 -163 12 -104 0 -155 -4 -163 -12z"/>
<path d="M5520 8334 l0 -75 -22 15 c-46 32 -125 10 -152 -42 -38 -73 -27 -162
25 -206 38 -32 86 -34 123 -5 21 17 26 18 26 5 0 -12 10 -16 40 -16 l40 0 0
200 0 200 -40 0 -40 0 0 -76z m-22 -120 c46 -32 20 -154 -33 -154 -30 0 -55
38 -55 85 0 32 6 51 20 65 24 24 38 25 68 4z"/>
<path d="M6860 8210 l0 -200 40 0 39 0 3 67 3 67 44 -67 43 -67 49 0 49 0 -50
69 c-54 74 -57 83 -37 99 7 6 28 32 46 57 l32 45 -48 0 c-48 0 -48 0 -88 -62
l-40 -62 -3 127 -3 127 -39 0 -40 0 0 -200z"/>
<path d="M2795 8381 c-69 -31 -86 -107 -37 -162 15 -17 52 -43 82 -57 56 -28
71 -51 50 -77 -16 -20 -93 -19 -130 0 l-30 16 0 -40 c0 -38 2 -41 38 -50 119
-34 217 14 217 105 0 53 -26 83 -106 123 -55 27 -70 51 -49 76 14 17 76 20
114 5 25 -9 26 -8 26 29 0 35 -3 39 -31 45 -54 10 -102 6 -144 -13z"/>
<path d="M2213 8379 c-9 -9 -13 -60 -13 -178 0 -150 1 -163 15 -144 8 12 31
27 49 33 43 14 91 -7 108 -48 16 -37 16 -36 33 -22 41 34 -16 245 -91 338 -22
27 -83 39 -101 21z"/>
<path d="M4400 8200 l0 -190 45 0 45 0 0 75 0 75 60 0 60 0 0 35 0 35 -60 0
-60 0 0 45 0 45 65 0 65 0 0 35 0 35 -110 0 -110 0 0 -190z"/>
<path d="M5790 8355 l0 -35 55 0 55 0 0 -155 0 -155 40 0 40 0 0 155 0 155 55
0 55 0 0 35 0 35 -150 0 -150 0 0 -35z"/>
<path d="M3088 8347 c-33 -8 -38 -13 -38 -38 0 -22 -5 -29 -20 -29 -16 0 -20
-7 -20 -30 0 -23 4 -30 20 -30 18 0 20 -7 20 -85 0 -78 2 -88 25 -111 20 -20
33 -25 68 -22 39 3 42 5 45 35 3 27 0 32 -12 27 -32 -12 -46 15 -46 87 l0 69
30 0 c27 0 30 3 30 30 0 27 -3 30 -29 30 -27 0 -30 3 -33 38 l-3 38 -37 -9z"/>
<path d="M4098 8347 c-33 -8 -38 -13 -38 -38 0 -24 -4 -29 -25 -29 -21 0 -25
-5 -25 -30 0 -25 4 -30 25 -30 25 0 25 -1 25 -85 0 -78 2 -88 25 -111 20 -20
33 -25 68 -22 39 3 42 5 45 35 3 27 0 32 -12 27 -32 -12 -46 15 -46 87 l0 69
30 0 c27 0 30 3 30 30 0 27 -3 30 -29 30 -27 0 -30 3 -33 38 l-3 38 -37 -9z"/>
<path d="M3345 8266 c-23 -23 -25 -23 -25 -6 0 17 -7 20 -40 20 l-40 0 0 -135
0 -135 39 0 39 0 4 91 c3 100 15 119 71 119 26 0 28 3 25 33 -4 42 -37 49 -73
13z"/>
<path d="M3511 8272 c-44 -24 -71 -74 -71 -133 0 -95 76 -153 177 -133 42 8
48 12 51 36 3 27 3 27 -51 21 -47 -5 -58 -2 -76 16 -11 11 -21 26 -21 31 0 6
37 10 91 10 l90 0 -6 48 c-15 104 -97 151 -184 104z m99 -61 c18 -34 12 -41
-40 -41 -54 0 -58 4 -34 38 19 27 60 29 74 3z"/>
<path d="M3802 8274 c-93 -48 -94 -210 -2 -256 66 -34 160 -18 160 26 0 24 -2
24 -54 19 -46 -5 -57 -2 -75 16 -11 11 -21 26 -21 31 0 6 37 10 90 10 101 0
102 1 80 81 -21 75 -106 110 -178 73z m96 -56 c7 -7 12 -20 12 -30 0 -15 -9
-18 -50 -18 -54 0 -58 4 -34 38 17 24 53 29 72 10z"/>
<path d="M4741 8272 c-54 -27 -75 -64 -75 -127 0 -63 21 -100 75 -127 67 -35
153 -14 189 44 27 44 27 122 0 166 -36 58 -122 79 -189 44z m109 -62 c44 -44
16 -150 -40 -150 -35 0 -60 35 -60 85 0 50 25 85 60 85 11 0 29 -9 40 -20z"/>
<path d="M5071 8272 c-54 -27 -75 -64 -75 -127 0 -63 21 -100 75 -127 67 -35
153 -14 189 44 44 73 16 184 -55 214 -46 19 -93 18 -134 -4z m109 -62 c44 -44
16 -150 -40 -150 -35 0 -60 35 -60 85 0 50 25 85 60 85 11 0 29 -9 40 -20z"/>
<path d="M6202 8268 c-19 -19 -22 -20 -22 -5 0 13 -9 17 -40 17 l-40 0 0 -135
0 -135 40 0 40 0 0 88 c0 99 12 122 63 122 24 0 27 4 27 35 0 30 -3 35 -23 35
-12 0 -33 -10 -45 -22z"/>
<path d="M6353 8279 c-28 -8 -33 -14 -33 -40 0 -26 3 -30 18 -23 36 16 98 16
111 0 18 -21 5 -36 -32 -37 -18 0 -48 -5 -67 -12 -61 -21 -80 -98 -34 -144 21
-21 32 -25 66 -20 22 3 48 13 59 23 17 16 19 16 19 1 0 -13 9 -17 35 -17 l35
0 0 109 c0 100 -2 112 -23 137 -18 21 -34 27 -73 30 -27 2 -64 -1 -81 -7z
m107 -157 c0 -33 -30 -63 -58 -60 -23 2 -27 8 -27 33 0 25 5 31 30 36 49 11
55 10 55 -9z"/>
<path d="M6685 8283 c-63 -16 -95 -67 -95 -149 0 -50 3 -59 33 -89 37 -37 87
-51 142 -41 31 6 35 11 35 37 0 28 -1 29 -39 23 -34 -5 -43 -3 -65 19 -32 32
-35 84 -7 118 15 19 28 24 65 23 44 -1 46 0 46 26 0 16 -7 30 -16 34 -18 7
-69 6 -99 -1z"/>
<path d="M7212 8274 c-93 -48 -94 -210 -2 -256 66 -34 160 -18 160 26 0 24 -2
24 -54 19 -46 -5 -57 -2 -75 16 -11 11 -21 26 -21 31 0 6 37 10 90 10 101 0
102 1 80 81 -21 75 -106 110 -178 73z m96 -56 c7 -7 12 -20 12 -30 0 -15 -9
-18 -50 -18 -54 0 -58 4 -34 38 17 24 53 29 72 10z"/>
<path d="M7556 8269 c-21 -17 -26 -18 -26 -5 0 12 -10 16 -40 16 l-40 0 0
-135 0 -135 40 0 40 0 0 83 c0 97 14 127 61 127 27 0 29 3 29 35 0 42 -22 47
-64 14z"/>
<path d="M1800 8087 c0 -81 38 -103 75 -44 11 17 32 38 47 45 38 18 95 -6 111
-48 11 -28 15 -30 64 -30 l53 0 0 65 0 65 -175 0 -175 0 0 -53z"/>
<path d="M1928 8039 c-27 -15 -23 -57 7 -71 30 -13 55 3 55 36 0 39 -28 55
-62 35z"/>
<path d="M2260 8036 c-28 -35 11 -93 48 -70 35 22 22 84 -18 84 -10 0 -23 -7
-30 -14z"/>
<path d="M2173 7000 c-58 -35 -63 -57 -63 -280 0 -223 5 -245 63 -280 31 -19
59 -20 1135 -20 1218 0 1142 -4 1182 63 18 29 20 51 20 237 0 186 -2 208 -20
237 -40 67 36 63 -1182 63 -1076 0 -1104 -1 -1135 -20z m457 -225 l0 -45 45 0
c25 0 45 -4 45 -10 0 -5 -20 -10 -45 -10 l-45 0 0 -45 c0 -25 -4 -45 -10 -45
-5 0 -10 20 -10 45 l0 45 -45 0 c-25 0 -45 5 -45 10 0 6 20 10 45 10 l45 0 0
45 c0 25 5 45 10 45 6 0 10 -20 10 -45z m540 -64 l0 -88 -47 -1 c-56 -2 -73
10 -73 50 0 48 16 68 55 68 32 0 35 2 35 30 0 20 5 30 15 30 12 0 15 -17 15
-89z m140 0 l0 -88 -47 -1 c-56 -2 -73 10 -73 50 0 48 16 68 55 68 32 0 35 2
35 30 0 20 5 30 15 30 12 0 15 -17 15 -89z m600 0 l0 -88 -50 -2 c-39 0 -52 3
-60 19 -25 47 1 100 52 100 24 0 28 4 28 30 0 20 5 30 15 30 12 0 15 -17 15
-89z m-907 12 c14 -38 28 -76 32 -85 11 -29 -20 -22 -33 7 -9 19 -19 25 -42
25 -23 0 -31 -5 -36 -25 -4 -15 -13 -25 -24 -25 -17 0 -16 7 11 76 16 43 32
81 35 85 14 23 34 3 57 -58z m438 0 l22 -68 22 65 c14 41 28 66 39 68 14 3 12
-8 -14 -79 -16 -45 -32 -84 -34 -87 -15 -14 -36 15 -59 81 -31 88 -31 87 -13
87 9 0 23 -26 37 -67z m187 5 c7 -7 12 -22 12 -35 0 -20 -5 -23 -41 -23 -28 0
-39 -4 -36 -12 2 -8 20 -13 41 -12 48 2 42 -20 -6 -24 -42 -4 -68 17 -68 55 0
51 65 84 98 51z m134 -1 c4 -7 8 -33 8 -59 0 -36 -4 -48 -15 -48 -11 0 -15 12
-15 50 0 42 -3 50 -19 50 -22 0 -31 -19 -31 -66 0 -24 -5 -34 -15 -34 -12 0
-15 13 -15 59 l0 58 47 1 c27 1 51 -4 55 -11z m288 -19 c13 -25 13 -31 0 -55
-21 -38 -81 -45 -104 -11 -9 12 -16 29 -16 38 0 9 7 26 16 38 23 34 83 27 104
-10z m100 23 c0 -5 -9 -13 -20 -16 -16 -5 -20 -15 -20 -51 0 -32 -4 -44 -15
-44 -12 0 -15 13 -15 60 l0 60 35 0 c19 0 35 -4 35 -9z"/>
<path d="M3080 6700 c-8 -14 -8 -26 0 -40 21 -40 67 -11 56 35 -8 31 -41 34
-56 5z"/>
<path d="M3220 6700 c-8 -14 -8 -26 0 -40 21 -40 67 -11 56 35 -8 31 -41 34
-56 5z"/>
<path d="M3824 6706 c-3 -8 -4 -25 -2 -38 2 -17 9 -23 28 -23 22 0 25 4 25 35
0 29 -4 36 -23 38 -13 2 -24 -3 -28 -12z"/>
<path d="M2950 6731 c0 -5 -3 -16 -6 -25 -4 -12 0 -16 15 -16 22 0 25 8 15 34
-7 17 -24 22 -24 7z"/>
<path d="M3567 6713 c-14 -13 -6 -23 18 -23 16 0 25 6 25 15 0 15 -31 21 -43
8z"/>
<path d="M3972 6708 c-25 -25 -6 -68 29 -68 21 0 33 31 24 60 -7 22 -35 26
-53 8z"/>
<path d="M2440 5860 c0 -94 17 -126 22 -42 3 43 5 47 28 47 23 0 25 -4 28 -47
2 -27 8 -48 13 -48 6 0 9 22 7 51 -3 60 -24 82 -58 61 -19 -11 -20 -10 -20 28
0 22 -4 40 -10 40 -6 0 -10 -37 -10 -90z"/>
<path d="M3320 5915 c0 -33 -2 -34 -28 -29 -37 8 -62 -17 -62 -60 0 -38 15
-56 46 -56 34 0 39 18 7 22 -25 3 -28 7 -28 38 0 32 2 35 30 35 27 0 30 -3 31
-35 2 -55 3 -60 14 -60 6 0 10 37 10 90 0 53 -4 90 -10 90 -5 0 -10 -16 -10
-35z"/>
<path d="M4720 5860 c0 -53 4 -90 10 -90 6 0 10 37 10 90 0 53 -4 90 -10 90
-6 0 -10 -37 -10 -90z"/>
<path d="M4780 5860 c0 -53 4 -90 10 -90 6 0 10 37 10 90 0 53 -4 90 -10 90
-6 0 -10 -37 -10 -90z"/>
<path d="M7120 5860 c0 -49 4 -90 9 -90 12 0 17 19 15 60 -1 19 -2 54 -3 78 0
23 -5 42 -11 42 -6 0 -10 -37 -10 -90z"/>
<path d="M2300 5930 c0 -5 11 -10 25 -10 24 0 25 -2 25 -75 0 -43 4 -75 10
-75 6 0 10 32 10 75 0 68 2 75 19 75 11 0 23 5 26 10 4 6 -17 10 -54 10 -34 0
-61 -4 -61 -10z"/>
<path d="M2970 5936 c0 -3 12 -38 26 -78 27 -74 39 -96 49 -86 11 11 64 162
59 167 -8 8 -22 -18 -40 -74 -9 -27 -20 -53 -23 -58 -4 -4 -17 24 -30 63 -12
38 -26 70 -32 70 -5 0 -9 -2 -9 -4z"/>
<path d="M3500 5930 c0 -5 5 -10 10 -10 6 0 10 5 10 10 0 6 -4 10 -10 10 -5 0
-10 -4 -10 -10z"/>
<path d="M4587 5873 c-14 -37 -28 -76 -32 -85 -11 -28 10 -21 23 7 9 20 19 25
47 25 29 0 36 -4 41 -25 3 -14 12 -25 19 -25 16 0 -43 161 -61 167 -6 2 -23
-27 -37 -64z m63 -29 c0 -2 -11 -4 -25 -4 -28 0 -30 6 -14 47 l11 28 14 -34
c8 -18 14 -35 14 -37z"/>
<path d="M4915 5927 c-28 -21 -13 -59 30 -80 49 -23 45 -52 -8 -52 -44 0 -44
-19 0 -23 34 -3 66 21 61 46 -2 9 -19 27 -38 40 -46 31 -47 57 -2 57 19 0 32
5 32 12 0 17 -51 17 -75 0z"/>
<path d="M6635 5924 c-23 -23 -15 -45 25 -72 48 -32 47 -57 -3 -57 -20 0 -36
-4 -34 -10 5 -15 53 -18 77 -5 30 16 22 50 -20 78 -45 30 -46 56 -2 60 17 2
32 7 32 13 0 15 -58 10 -75 -7z"/>
<path d="M7435 5930 c3 -5 15 -10 26 -10 17 0 19 -7 19 -75 0 -43 4 -75 10
-75 6 0 10 32 10 75 0 73 1 75 25 75 14 0 25 5 25 10 0 6 -27 10 -61 10 -37 0
-58 -4 -54 -10z"/>
<path d="M7570 5930 c0 -5 5 -10 10 -10 6 0 10 5 10 10 0 6 -4 10 -10 10 -5 0
-10 -4 -10 -10z"/>
<path d="M8046 5911 c-9 -16 -16 -51 -16 -76 0 -25 7 -60 16 -76 21 -42 28
-31 9 14 -8 20 -15 48 -15 62 0 14 7 42 15 62 19 45 12 56 -9 14z"/>
<path d="M8100 5855 c0 -50 4 -85 10 -85 6 0 10 31 10 73 l0 72 46 -70 c63
-99 74 -97 74 9 0 51 -4 86 -10 86 -6 0 -10 -31 -10 -72 l-1 -73 -45 73 c-62
97 -74 95 -74 -13z"/>
<path d="M8880 5938 c0 -3 7 -23 16 -44 17 -41 13 -116 -7 -141 -7 -7 -9 -16
-6 -19 3 -3 13 6 22 20 23 34 17 148 -8 173 -9 10 -17 15 -17 11z"/>
<path d="M2705 5913 c-4 -13 -12 -23 -18 -23 -7 0 -7 -4 1 -12 7 -7 12 -25 12
-41 0 -36 16 -67 35 -67 19 0 19 16 0 24 -9 3 -15 19 -15 41 0 24 4 35 15 35
8 0 15 5 15 10 0 6 -6 10 -14 10 -8 0 -17 10 -19 23 l-4 22 -8 -22z"/>
<path d="M5035 5915 c-5 -11 -13 -23 -19 -27 -8 -6 -7 -10 1 -16 6 -4 13 -28
15 -52 2 -38 7 -46 26 -48 12 -2 22 1 22 7 0 6 -7 11 -15 11 -11 0 -15 11 -15
40 0 29 4 40 15 40 8 0 15 5 15 10 0 6 -6 10 -14 10 -8 0 -16 10 -19 23 -3 21
-4 21 -12 2z"/>
<path d="M5235 5915 c-5 -11 -13 -24 -19 -28 -8 -6 -7 -10 2 -14 6 -2 12 -20
12 -38 0 -18 3 -40 6 -49 7 -17 44 -22 44 -6 0 6 -7 10 -15 10 -11 0 -15 11
-15 40 0 29 4 40 15 40 8 0 15 5 15 10 0 6 -6 10 -14 10 -8 0 -16 10 -19 23
-3 21 -4 21 -12 2z"/>
<path d="M6985 5913 c-5 -15 -15 -23 -29 -23 -12 0 -27 -5 -34 -12 -9 -9 -12
-9 -12 0 0 7 -4 12 -10 12 -6 0 -10 -27 -10 -60 0 -33 4 -60 10 -60 6 0 10 17
10 39 0 40 12 57 45 63 16 2 21 -4 25 -37 7 -48 16 -65 36 -65 19 0 18 16 -1
24 -9 3 -15 19 -15 41 0 24 4 35 15 35 8 0 15 5 15 10 0 6 -6 10 -14 10 -8 0
-17 10 -19 23 l-4 22 -8 -22z"/>
<path d="M8815 5913 c-4 -13 -12 -23 -18 -23 -7 0 -7 -4 1 -12 7 -7 12 -25 12
-41 0 -36 16 -67 35 -67 19 0 19 16 0 24 -9 3 -15 19 -15 41 0 24 4 35 15 35
8 0 15 5 15 10 0 6 -6 10 -14 10 -8 0 -17 10 -19 23 l-4 22 -8 -22z"/>
<path d="M3930 5892 c0 -5 14 -21 30 -37 l30 -29 32 32 c37 36 30 57 -7 22
l-25 -23 -23 21 c-24 23 -37 28 -37 14z"/>
<path d="M5940 5892 c0 -5 14 -21 30 -37 l30 -29 32 32 c37 36 30 57 -7 22
l-25 -23 -23 21 c-24 23 -37 28 -37 14z"/>
<path d="M2587 5883 c-14 -14 -6 -19 22 -15 42 6 47 -15 5 -22 -64 -13 -57
-71 10 -71 l36 -1 0 52 c0 38 -4 53 -16 58 -21 8 -49 8 -57 -1z m53 -73 c-12
-22 -50 -27 -50 -7 0 20 10 27 37 27 21 0 22 -3 13 -20z"/>
<path d="M2780 5841 c0 -57 12 -70 63 -68 l37 1 0 58 c0 32 -4 58 -10 58 -5 0
-10 -15 -10 -34 0 -50 -9 -66 -36 -66 -22 0 -24 4 -24 50 0 28 -4 50 -10 50
-5 0 -10 -22 -10 -49z"/>
<path d="M3125 5880 c-4 -6 7 -10 24 -10 40 0 40 -16 1 -25 -66 -14 -57 -75
10 -72 l40 1 0 46 c0 25 -5 51 -12 58 -15 15 -54 16 -63 2z m53 -67 c-4 -20
-35 -30 -50 -15 -15 15 0 32 28 32 19 0 25 -5 22 -17z"/>
<path d="M3387 5883 c-14 -14 -6 -19 22 -15 42 6 47 -15 5 -22 -64 -13 -57
-71 10 -71 l36 -1 0 52 c0 38 -4 53 -16 58 -21 8 -49 8 -57 -1z m53 -73 c-12
-22 -50 -27 -50 -7 0 20 10 27 37 27 21 0 22 -3 13 -20z"/>
<path d="M3500 5830 c0 -33 4 -60 10 -60 6 0 10 27 10 60 0 33 -4 60 -10 60
-6 0 -10 -27 -10 -60z"/>
<path d="M5115 5880 c-4 -6 7 -10 24 -10 40 0 40 -16 1 -25 -66 -14 -57 -75
10 -72 l40 1 0 46 c0 25 -5 51 -12 58 -15 15 -54 16 -63 2z m53 -67 c-4 -20
-35 -30 -50 -15 -15 15 0 32 28 32 19 0 25 -5 22 -17z"/>
<path d="M5310 5835 c0 -59 4 -62 73 -63 26 0 27 1 27 59 0 33 -4 59 -10 59
-5 0 -10 -15 -10 -34 0 -50 -9 -66 -36 -66 -22 0 -24 4 -24 50 0 28 -4 50 -10
50 -5 0 -10 -25 -10 -55z"/>
<path d="M5453 5883 c-24 -9 -14 -42 17 -58 17 -9 30 -20 30 -25 0 -6 -13 -10
-30 -10 -16 0 -30 -4 -30 -10 0 -16 47 -12 65 6 15 15 15 18 -1 35 -9 11 -23
19 -31 19 -7 0 -13 7 -13 15 0 9 9 15 25 15 14 0 25 5 25 10 0 10 -35 12 -57
3z"/>
<path d="M5555 5874 c-10 -11 -15 -29 -13 -53 2 -28 8 -38 29 -45 15 -5 35 -5
45 -1 16 7 13 9 -15 14 -51 9 -52 31 -2 31 34 0 41 3 41 19 0 44 -54 66 -85
35z m63 -21 c2 -9 -7 -13 -27 -13 -30 0 -39 9 -24 24 11 10 46 3 51 -11z"/>
<path d="M5670 5871 c-11 -22 9 -51 36 -51 30 0 13 -29 -18 -32 -26 -3 -29 -6
-15 -12 9 -5 28 -5 42 -2 35 9 33 42 -5 61 -39 20 -38 35 1 35 17 0 28 4 24
10 -11 17 -54 11 -65 -9z"/>
<path d="M6766 5874 c-23 -22 -21 -81 3 -94 29 -15 56 -12 74 8 35 39 11 102
-38 102 -13 0 -31 -7 -39 -16z m69 -44 c0 -31 -3 -35 -27 -38 -34 -4 -54 27
-38 59 8 14 19 19 38 17 24 -3 27 -7 27 -38z"/>
<path d="M7155 5881 c-3 -5 7 -11 22 -13 25 -3 28 -7 28 -38 0 -31 -3 -35 -28
-38 -15 -2 -25 -8 -22 -13 9 -14 42 -11 59 7 19 18 21 75 4 92 -14 14 -54 16
-63 3z"/>
<path d="M7250 5886 c0 -2 9 -25 20 -51 11 -26 20 -58 20 -72 0 -16 -7 -27
-20 -30 -25 -7 -27 -26 -2 -21 9 2 25 19 34 38 32 66 58 140 49 140 -4 0 -17
-23 -28 -52 l-20 -52 -17 52 c-10 29 -22 52 -27 52 -5 0 -9 -2 -9 -4z"/>
<path d="M7570 5830 c0 -33 4 -60 10 -60 6 0 10 27 10 60 0 33 -4 60 -10 60
-6 0 -10 -27 -10 -60z"/>
<path d="M7630 5828 c0 -69 18 -78 22 -10 3 40 6 47 26 50 20 3 22 0 22 -47 0
-28 5 -51 10 -51 6 0 10 17 10 38 0 46 12 65 36 60 15 -2 20 -14 22 -51 4 -57
22 -63 22 -6 0 67 -34 101 -68 67 -8 -8 -15 -8 -24 -1 -7 6 -28 10 -45 10
l-33 0 0 -59z"/>
<path d="M7846 5868 c-39 -55 6 -116 68 -92 27 10 18 19 -21 19 -20 0 -38 6
-40 13 -3 8 8 12 36 12 36 0 41 3 41 23 0 48 -56 65 -84 25z m68 -13 c4 -12
-3 -15 -29 -15 -33 0 -43 8 -28 23 12 13 51 7 57 -8z"/>
<path d="M8290 5870 c-47 -47 1 -118 64 -94 27 10 18 19 -21 19 -20 0 -38 6
-40 13 -3 8 8 12 36 12 36 0 41 3 41 23 0 47 -45 62 -80 27z m68 -17 c2 -9 -8
-13 -32 -13 -28 0 -34 3 -29 16 7 18 54 16 61 -3z"/>
<path d="M8395 5873 c3 -10 11 -37 18 -60 6 -24 16 -43 22 -43 6 0 17 21 24
48 l14 47 14 -47 c8 -27 18 -48 23 -48 9 0 40 84 40 107 0 29 -19 1 -25 -38
-8 -45 -15 -44 -30 8 -14 48 -26 46 -44 -7 l-15 -45 -15 48 c-8 26 -19 47 -24
47 -5 0 -6 -8 -2 -17z"/>
<path d="M8590 5870 c-47 -47 1 -118 64 -94 27 10 18 19 -21 19 -20 0 -38 6
-40 13 -3 8 8 12 36 12 36 0 41 3 41 23 0 47 -45 62 -80 27z m68 -17 c2 -9 -8
-13 -32 -13 -28 0 -34 3 -29 16 7 18 54 16 61 -3z"/>
<path d="M8712 5878 c-20 -20 -14 -37 18 -53 17 -9 30 -20 30 -25 0 -6 -13
-10 -30 -10 -16 0 -30 -4 -30 -10 0 -15 56 -12 69 4 16 19 3 45 -25 52 -32 8
-31 34 1 34 14 0 25 5 25 10 0 14 -43 13 -58 -2z"/>
<path d="M16255 4340 c-4 -7 2 -22 14 -33 16 -17 23 -19 33 -9 9 9 10 17 2 30
-14 21 -40 27 -49 12z"/>
<path d="M16563 4343 c-7 -2 -13 -11 -13 -18 0 -7 -13 -16 -29 -20 -27 -6 -29
-9 -20 -31 5 -14 9 -49 9 -79 0 -30 4 -65 10 -79 9 -24 14 -26 79 -26 42 0 73
5 77 12 4 6 9 45 12 87 2 42 8 84 13 93 7 13 3 18 -21 23 -17 4 -30 13 -30 20
0 21 -52 33 -87 18z m77 -23 c0 -5 -18 -10 -40 -10 -22 0 -40 5 -40 10 0 6 18
10 40 10 22 0 40 -4 40 -10z m-60 -128 c0 -79 -17 -73 -20 8 -3 68 -2 73 10
65 6 -3 10 -36 10 -73z m62 11 c-6 -83 -22 -91 -22 -12 0 36 3 69 6 72 15 15
20 -6 16 -60z"/>
<path d="M16148 4232 c-68 -68 -107 -126 -94 -139 12 -13 80 34 144 99 l73 74
-24 22 -23 22 -76 -78z"/>
<path d="M2580 4235 c-11 -13 -11 -19 3 -32 21 -21 49 -9 45 19 -4 28 -30 35
-48 13z"/>
<path d="M3010 4115 l0 -135 25 0 c14 0 25 5 25 10 0 7 6 7 19 0 55 -29 111
12 111 83 0 73 -54 109 -108 71 l-22 -15 0 60 c0 58 -1 61 -25 61 l-25 0 0
-135z m123 -16 c14 -23 1 -67 -24 -74 -27 -9 -49 11 -49 46 0 44 50 64 73 28z"/>
<path d="M4430 4115 l0 -135 25 0 c24 0 25 3 25 59 0 61 16 89 45 77 11 -4 15
-22 15 -71 l0 -65 31 0 31 0 -4 76 c-3 60 -7 79 -23 90 -25 19 -54 18 -77 -3
-17 -15 -18 -14 -18 45 0 59 -1 62 -25 62 l-25 0 0 -135z"/>
<path d="M5820 4195 c0 -54 0 -54 -24 -44 -54 25 -106 -20 -106 -91 0 -60 76
-103 114 -64 15 14 16 14 16 0 0 -10 9 -16 25 -16 l25 0 0 135 0 135 -25 0
c-24 0 -25 -3 -25 -55z m-12 -87 c26 -26 8 -88 -24 -88 -19 0 -44 29 -44 50 0
21 25 50 44 50 6 0 17 -5 24 -12z"/>
<path d="M6124 4235 c-8 -21 2 -45 19 -45 8 0 20 7 27 15 10 12 10 18 0 30 -7
8 -19 15 -27 15 -7 0 -16 -7 -19 -15z"/>
<path d="M2193 4225 c-64 -28 -92 -119 -57 -186 33 -64 174 -84 174 -24 0 21
-3 22 -44 18 -57 -7 -86 19 -86 75 0 55 34 86 90 80 39 -3 41 -2 38 22 -3 22
-8 25 -43 27 -22 2 -55 -4 -72 -12z"/>
<path d="M4200 4215 c0 -22 4 -25 35 -25 l35 0 0 -105 0 -105 25 0 25 0 0 105
0 105 35 0 c31 0 35 3 35 25 0 25 0 25 -95 25 -95 0 -95 0 -95 -25z"/>
<path d="M5314 4113 c42 -125 43 -128 73 -131 l31 -3 41 123 c23 68 41 126 41
131 0 4 -11 7 -24 7 -22 0 -27 -9 -50 -84 -14 -46 -26 -89 -26 -95 0 -6 -4
-11 -10 -11 -5 0 -10 5 -10 12 0 7 -11 49 -25 95 -24 79 -27 83 -55 83 l-29 0
43 -127z"/>
<path d="M3453 4200 c-13 -5 -23 -16 -23 -25 0 -8 -7 -15 -15 -15 -8 0 -15 -9
-15 -20 0 -11 7 -20 15 -20 11 0 15 -12 15 -48 0 -63 22 -94 63 -90 24 2 33 9
35 24 2 16 -2 22 -15 20 -15 -1 -19 8 -21 47 -3 42 -1 47 17 47 14 0 21 6 21
20 0 13 -7 20 -20 20 -15 0 -20 7 -20 25 0 27 -3 28 -37 15z"/>
<path d="M4873 4202 c-15 -2 -23 -10 -23 -23 0 -10 -7 -19 -15 -19 -8 0 -15
-9 -15 -20 0 -11 7 -20 15 -20 11 0 15 -13 15 -53 0 -63 21 -90 67 -85 35 4
41 30 11 43 -18 8 -24 20 -26 53 -3 39 -1 42 22 42 19 0 26 5 26 20 0 15 -7
20 -24 20 -18 0 -26 6 -28 23 -2 16 -9 21 -25 19z"/>
<path d="M2400 4153 c-37 -14 -50 -37 -50 -83 0 -33 5 -52 19 -64 24 -22 79
-30 114 -17 52 20 68 109 27 146 -20 18 -85 28 -110 18z m69 -47 c31 -37 -9
-103 -46 -80 -37 23 -24 94 17 94 10 0 23 -6 29 -14z"/>
<path d="M2580 4070 c0 -89 0 -90 25 -90 25 0 25 1 25 90 0 89 0 90 -25 90
-25 0 -25 -1 -25 -90z"/>
<path d="M2680 4070 c0 -89 0 -90 25 -90 24 0 25 3 25 59 0 61 16 89 45 77 11
-4 15 -22 15 -71 l0 -65 30 0 30 0 0 64 c0 50 4 65 16 70 30 11 44 -13 44 -75
0 -56 1 -59 25 -59 24 0 25 2 25 73 0 59 -4 77 -18 90 -22 21 -52 22 -77 3
-16 -11 -23 -11 -47 3 -26 15 -30 15 -58 -1 -25 -14 -30 -15 -30 -3 0 9 -10
15 -25 15 -25 0 -25 -1 -25 -90z"/>
<path d="M3253 4150 c-13 -5 -23 -16 -23 -24 0 -13 9 -14 45 -9 36 5 45 3 45
-9 0 -10 -14 -17 -41 -21 -46 -6 -59 -19 -59 -60 0 -37 38 -56 77 -38 19 9 29
9 31 2 2 -6 15 -11 29 -11 25 0 25 1 21 71 -3 60 -8 74 -27 90 -25 20 -62 23
-98 9z m67 -110 c-11 -21 -44 -27 -55 -10 -11 17 5 30 36 30 27 0 29 -2 19
-20z"/>
<path d="M3579 4131 c-62 -63 -21 -151 71 -151 44 0 90 47 90 92 -1 82 -101
119 -161 59z m95 -27 c9 -8 16 -24 16 -34 0 -22 -25 -50 -45 -50 -20 0 -45 28
-45 50 0 22 25 50 45 50 7 0 21 -7 29 -16z"/>
<path d="M3780 4070 c0 -89 0 -90 25 -90 23 0 25 4 25 46 0 55 14 84 40 84 15
0 20 7 20 25 0 29 -16 32 -42 8 -17 -15 -18 -15 -18 0 0 11 -8 17 -25 17 -25
0 -25 -1 -25 -90z"/>
<path d="M3939 4131 c-33 -34 -39 -82 -14 -118 28 -40 135 -43 135 -5 0 15 -7
17 -35 14 -34 -4 -65 10 -65 29 0 5 27 9 60 9 58 0 60 1 60 25 0 14 -11 37
-25 50 -34 35 -78 33 -116 -4z m89 -28 c2 -9 -8 -13 -33 -13 -33 0 -36 2 -25
15 15 18 51 16 58 -2z"/>
<path d="M4668 4153 c-10 -2 -18 -12 -18 -22 0 -14 8 -18 38 -17 48 1 55 -17
9 -25 -45 -7 -67 -25 -67 -55 0 -45 47 -67 91 -44 13 7 19 7 19 0 0 -5 11 -10
25 -10 24 0 25 2 25 70 0 57 -4 74 -20 90 -19 19 -60 24 -102 13z m70 -110
c-4 -20 -35 -30 -50 -15 -15 15 0 32 28 32 19 0 25 -5 22 -17z"/>
<path d="M4980 4087 c0 -59 4 -77 18 -90 22 -20 45 -21 75 -6 16 9 22 9 25 0
2 -6 15 -11 28 -11 24 0 24 1 24 90 0 88 0 90 -24 90 -22 0 -24 -5 -28 -60 -5
-67 -16 -85 -47 -75 -18 6 -21 14 -21 71 0 62 -1 64 -25 64 -24 0 -25 -2 -25
-73z"/>
<path d="M5533 4150 c-13 -5 -23 -16 -23 -24 0 -13 9 -14 45 -9 36 5 45 3 45
-9 0 -10 -14 -17 -41 -21 -46 -6 -59 -19 -59 -60 0 -37 38 -56 77 -38 19 9 29
9 31 2 2 -6 15 -11 29 -11 25 0 25 1 21 71 -3 60 -8 74 -27 90 -25 20 -62 23
-98 9z m67 -110 c-11 -21 -44 -27 -55 -10 -11 17 5 30 36 30 27 0 29 -2 19
-20z"/>
<path d="M5948 4153 c-10 -2 -18 -12 -18 -22 0 -14 8 -18 38 -17 48 1 55 -17
9 -25 -45 -7 -67 -25 -67 -55 0 -45 47 -67 91 -44 13 7 19 7 19 0 0 -5 11 -10
25 -10 24 0 25 2 25 70 0 57 -4 74 -20 90 -19 19 -60 24 -102 13z m70 -110
c-4 -20 -35 -30 -50 -15 -15 15 0 32 28 32 19 0 25 -5 22 -17z"/>
<path d="M6120 4070 c0 -89 0 -90 25 -90 25 0 25 1 25 90 0 89 0 90 -25 90
-25 0 -25 -1 -25 -90z"/>
<path d="M2350 3690 c0 -47 4 -80 10 -80 6 0 10 17 10 39 0 39 20 68 40 56 5
-3 10 -26 10 -51 0 -24 5 -44 10 -44 6 0 10 20 10 44 0 49 -18 71 -50 61 -17
-5 -20 -2 -20 24 0 17 -4 31 -10 31 -6 0 -10 -33 -10 -80z"/>
<path d="M3120 3741 c0 -24 -3 -28 -23 -24 -28 6 -57 -19 -57 -48 0 -49 39
-76 68 -47 9 9 12 9 12 0 0 -7 5 -12 10 -12 6 0 10 33 10 80 0 47 -4 80 -10
80 -5 0 -10 -13 -10 -29z m-12 -43 c28 -28 3 -85 -32 -72 -27 10 -15 84 14 84
3 0 11 -5 18 -12z"/>
<path d="M2235 3750 c3 -5 13 -10 21 -10 11 0 14 -15 14 -65 0 -37 4 -65 10
-65 6 0 10 28 10 65 0 50 3 65 14 65 8 0 18 5 21 10 4 6 -13 10 -45 10 -32 0
-49 -4 -45 -10z"/>
<path d="M2838 3685 c15 -41 31 -74 36 -72 9 3 56 121 56 140 0 22 -18 -9 -35
-61 -9 -30 -21 -50 -25 -45 -4 4 -15 32 -25 61 -9 28 -21 52 -25 52 -5 0 3
-34 18 -75z"/>
<path d="M2585 3740 c-9 -14 -9 -81 1 -112 3 -10 13 -18 22 -18 12 0 13 3 4
12 -19 19 -15 86 6 91 15 4 15 5 0 6 -9 0 -18 9 -20 19 -3 14 -5 15 -13 2z"/>
<path d="M2485 3710 c-4 -6 3 -9 16 -7 34 3 33 -17 -2 -30 -24 -9 -30 -17 -27
-35 2 -19 9 -23 41 -24 36 -1 37 0 37 33 0 19 -5 43 -10 54 -11 20 -45 26 -55
9z m32 -77 c-16 -17 -37 -10 -37 12 0 15 43 25 49 12 2 -5 -4 -16 -12 -24z"/>
<path d="M2651 3679 c-1 -52 11 -68 51 -66 27 2 28 4 26 57 -1 49 -2 50 -5 13
-5 -46 -27 -73 -45 -55 -6 6 -15 31 -19 54 l-6 43 -2 -46z"/>
<path d="M2950 3710 c-12 -8 -8 -10 14 -8 39 4 45 -18 7 -27 -58 -13 -47 -64
14 -62 31 1 35 4 35 28 0 65 -31 95 -70 69z m50 -54 c0 -18 -27 -39 -40 -31
-16 10 -12 33 8 38 29 8 32 7 32 -7z"/>
<path d="M3185 3710 c-4 -6 3 -9 16 -7 34 3 33 -17 -2 -30 -24 -9 -30 -17 -27
-35 2 -19 9 -23 41 -24 36 -1 37 0 37 33 0 19 -5 43 -10 54 -11 20 -45 26 -55
9z m32 -77 c-16 -17 -37 -10 -37 12 0 15 43 25 49 12 2 -5 -4 -16 -12 -24z"/>
<path d="M3283 3665 c0 -33 2 -45 4 -27 2 18 2 45 0 60 -2 15 -4 0 -4 -33z"/>
<path d="M2137 3193 c-4 -3 -7 -28 -7 -55 l0 -48 75 0 75 0 0 39 c0 66 -5 71
-74 71 -35 0 -66 -3 -69 -7z"/>
<path d="M3050 3155 c0 -32 -2 -35 -24 -29 -28 7 -66 -24 -66 -54 0 -45 50
-78 78 -50 9 9 12 9 12 0 0 -7 5 -12 10 -12 6 0 10 37 10 90 0 53 -4 90 -10
90 -5 0 -10 -16 -10 -35z m0 -85 c0 -18 -7 -33 -18 -39 -26 -14 -52 5 -52 39
0 34 26 53 52 39 11 -6 18 -21 18 -39z"/>
<path d="M3110 3100 c0 -53 4 -90 10 -90 6 0 10 20 10 44 0 47 17 70 44 60 12
-4 16 -19 16 -55 0 -27 5 -49 10 -49 13 0 13 76 0 101 -12 21 -40 25 -58 7 -9
-9 -12 -3 -12 30 0 23 -4 42 -10 42 -6 0 -10 -37 -10 -90z"/>
<path d="M4672 3100 c-1 -61 2 -90 7 -80 6 8 7 26 4 40 -5 26 16 60 37 60 15
0 40 -31 40 -49 0 -26 -33 -53 -55 -45 -13 5 -16 4 -11 -4 10 -17 42 -15 60 4
9 8 16 31 16 50 0 42 -33 64 -68 45 -19 -10 -21 -8 -25 31 -2 24 -4 0 -5 -52z"/>
<path d="M2585 3168 c-51 -29 -61 -93 -20 -133 25 -25 42 -29 83 -19 18 5 22
13 22 45 0 35 -3 39 -25 39 -14 0 -25 -4 -25 -10 0 -5 9 -10 21 -10 15 0 20
-5 17 -22 -2 -18 -10 -24 -39 -26 -44 -4 -63 16 -63 65 0 44 24 63 78 63 30 0
37 3 26 10 -20 13 -50 12 -75 -2z"/>
<path d="M4142 3164 c-69 -48 -36 -154 48 -154 10 0 22 5 25 10 4 6 -8 10 -28
10 -41 0 -67 25 -67 67 0 38 27 63 69 63 19 0 30 4 26 10 -9 15 -48 12 -73 -6z"/>
<path d="M4400 3170 c0 -5 5 -10 10 -10 6 0 10 5 10 10 0 6 -4 10 -10 10 -5 0
-10 -4 -10 -10z"/>
<path d="M2300 3104 c0 -57 2 -65 14 -55 17 14 56 -1 56 -21 0 -9 3 -9 11 -1
7 7 7 23 -1 54 -15 58 -36 89 -60 89 -18 0 -20 -7 -20 -66z"/>
<path d="M4941 3148 c0 -10 -6 -18 -12 -18 -8 0 -8 -4 -1 -13 6 -7 12 -33 14
-57 2 -36 7 -45 23 -48 19 -3 19 -2 3 11 -11 9 -18 28 -18 50 0 24 6 39 18 46
15 9 15 10 0 11 -9 0 -19 8 -21 18 -4 16 -5 16 -6 0z"/>
<path d="M2720 3119 c-12 -9 -10 -10 8 -6 26 6 52 -1 52 -13 0 -5 -13 -11 -30
-15 -36 -8 -52 -32 -39 -57 11 -20 44 -24 55 -7 4 8 9 7 15 -2 5 -9 9 7 9 42
0 43 -4 58 -16 63 -22 9 -37 7 -54 -5z m60 -59 c0 -21 -27 -40 -47 -33 -21 7
-15 33 10 43 33 13 37 12 37 -10z"/>
<path d="M2843 3070 c0 -53 1 -57 4 -18 3 33 10 51 22 57 27 15 44 -3 52 -56
l6 -48 2 51 c1 62 -16 83 -54 66 -18 -8 -25 -8 -29 1 -2 7 -4 -17 -3 -53z"/>
<path d="M3253 3070 c0 -36 2 -50 4 -32 2 17 2 47 0 65 -2 17 -4 3 -4 -33z"/>
<path d="M3312 3040 c1 -69 3 -83 7 -50 4 28 9 40 14 33 12 -19 41 -16 60 5
43 47 -2 124 -53 92 -9 -6 -17 -5 -22 3 -4 7 -7 -31 -6 -83z m72 64 c21 -21
20 -40 -4 -64 -16 -16 -25 -18 -40 -10 -26 14 -27 65 -2 79 23 14 28 14 46 -5z"/>
<path d="M3442 3080 c3 -28 8 -53 12 -57 4 -4 24 -8 46 -9 l40 -2 0 59 c0 33
-4 59 -10 59 -5 0 -10 -20 -10 -44 0 -26 -6 -48 -15 -56 -25 -20 -45 5 -45 56
0 26 -5 44 -11 44 -8 0 -10 -17 -7 -50z"/>
<path d="M3580 3070 c0 -33 4 -60 10 -60 6 0 10 21 10 46 0 37 4 47 20 51 11
3 20 9 20 14 0 13 -14 11 -28 -3 -9 -9 -12 -9 -12 0 0 7 -4 12 -10 12 -6 0
-10 -27 -10 -60z"/>
<path d="M3674 3118 c-5 -8 -2 -9 9 -5 19 7 47 -1 47 -14 0 -5 -15 -12 -32
-17 -25 -6 -34 -14 -36 -34 -4 -31 29 -48 53 -28 11 9 15 9 15 1 0 -6 5 -11
10 -11 13 0 13 76 0 101 -12 21 -55 26 -66 7z m41 -84 c-21 -16 -47 -7 -43 14
4 22 52 33 57 13 2 -8 -5 -20 -14 -27z"/>
<path d="M3792 3070 c1 -64 1 -64 7 -17 12 83 61 83 61 1 0 -24 5 -44 10 -44
6 0 10 20 10 44 0 82 49 82 61 -1 l6 -48 2 51 c1 61 -16 83 -52 67 -15 -7 -29
-7 -40 -2 -11 6 -24 6 -36 0 -14 -8 -21 -7 -24 2 -3 6 -5 -17 -5 -53z"/>
<path d="M4270 3110 c-11 -11 -20 -29 -20 -40 0 -25 34 -60 58 -60 31 0 53 24
54 59 2 56 -53 80 -92 41z m61 0 c26 -15 26 -66 -1 -80 -14 -8 -26 -8 -40 0
-26 14 -27 65 -2 79 21 13 20 13 43 1z"/>
<path d="M4400 3070 c0 -33 4 -60 10 -60 6 0 10 27 10 60 0 33 -4 60 -10 60
-6 0 -10 -27 -10 -60z"/>
<path d="M4462 3070 l0 -65 9 49 c8 50 22 68 46 59 8 -3 13 -22 13 -54 0 -27
5 -49 10 -49 6 0 10 20 10 44 0 86 56 85 63 -2 3 -46 3 -46 5 10 2 49 -1 58
-18 63 -12 4 -27 1 -35 -5 -12 -10 -18 -10 -30 0 -12 10 -22 10 -40 2 -18 -8
-25 -8 -29 1 -2 7 -4 -17 -4 -53z"/>
<path d="M4820 3119 c-12 -8 -12 -10 5 -8 55 4 63 -16 13 -29 -25 -6 -34 -14
-36 -34 -4 -31 29 -48 53 -28 11 9 15 9 15 1 0 -6 5 -11 10 -11 14 0 12 94 -2
108 -15 15 -38 15 -58 1z m34 -86 c-13 -9 -21 -10 -31 -1 -19 15 -11 31 18 38
30 8 39 -18 13 -37z"/>
<path d="M5020 3110 c-11 -11 -20 -29 -20 -40 0 -25 34 -60 58 -60 31 0 53 24
54 59 2 56 -53 80 -92 41z m61 0 c26 -15 26 -66 -1 -80 -14 -8 -26 -8 -40 0
-26 14 -27 65 -2 79 21 13 20 13 43 1z"/>
<path d="M5150 3070 c0 -33 4 -60 10 -60 6 0 10 21 10 46 0 37 4 47 20 51 11
3 20 9 20 14 0 13 -14 11 -28 -3 -9 -9 -12 -9 -12 0 0 7 -4 12 -10 12 -6 0
-10 -27 -10 -60z"/>
<path d="M5247 3112 c-46 -51 9 -129 63 -91 12 8 9 9 -12 5 -17 -4 -32 -1 -42
10 -23 22 -11 34 35 34 43 0 46 5 23 38 -18 27 -45 28 -67 4z m53 -7 c17 -21
9 -27 -31 -23 -31 3 -32 4 -15 21 21 21 30 21 46 2z"/>
<path d="M2130 3051 c0 -27 20 -38 32 -17 11 20 57 21 64 1 4 -8 17 -15 30
-15 19 0 24 5 24 25 0 24 -2 25 -75 25 -68 0 -75 -2 -75 -19z"/>
<path d="M3987 3013 c-7 -39 -1 -40 11 -4 6 17 7 31 3 31 -5 0 -11 -12 -14
-27z"/>
<path d="M2180 3015 c0 -8 7 -15 15 -15 8 0 15 7 15 15 0 8 -7 15 -15 15 -8 0
-15 -7 -15 -15z"/>
<path d="M2320 3015 c0 -8 7 -15 15 -15 8 0 15 7 15 15 0 8 -7 15 -15 15 -8 0
-15 -7 -15 -15z"/>
<path d="M2203 2704 c-69 -34 -81 -131 -23 -189 26 -25 38 -30 80 -30 42 0 54
5 80 30 58 59 46 156 -25 189 -41 20 -71 20 -112 0z m67 -54 c0 -38 2 -40 30
-40 17 0 30 -4 30 -10 0 -5 -18 -10 -40 -10 l-40 0 0 50 c0 28 5 50 10 50 6 0
10 -18 10 -40z"/>
<path d="M2573 2616 c-24 -31 -43 -61 -43 -66 0 -6 18 -10 40 -10 34 0 40 -3
41 -22 1 -21 2 -21 6 -3 3 11 10 23 17 28 8 5 8 9 -1 15 -6 4 -13 32 -15 61
l-3 54 -42 -57z m37 -16 c0 -38 -2 -40 -30 -40 l-30 0 26 40 c15 22 28 40 30
40 2 0 4 -18 4 -40z"/>
<path d="M2740 2585 c0 -50 4 -85 10 -85 6 0 10 14 10 30 0 22 5 30 18 30 32
0 62 29 62 60 0 34 -23 50 -69 50 l-31 0 0 -85z m85 45 c9 -27 -11 -50 -41
-50 -21 0 -24 5 -24 35 0 32 2 35 29 35 21 0 32 -6 36 -20z"/>
<path d="M2882 2583 l2 -88 5 75 6 75 18 -37 c9 -21 24 -55 33 -75 l17 -38 28
60 c15 33 27 67 27 75 0 8 -12 -11 -27 -43 l-27 -59 -32 71 c-17 39 -36 71
-41 71 -7 0 -10 -32 -9 -87z"/>
<path d="M3024 2648 c3 -13 6 -51 6 -85 0 -35 4 -63 10 -63 6 0 10 35 10 85 0
72 -3 85 -16 85 -12 0 -15 -6 -10 -22z"/>
<path d="M3330 2650 c-24 -24 -25 -38 -4 -68 17 -24 43 -29 62 -10 9 9 12 8
12 -5 0 -27 -38 -59 -62 -51 -14 4 -18 2 -14 -5 11 -17 44 -13 66 9 15 15 20
33 20 69 0 74 -38 103 -80 61z m66 -27 c8 -30 -6 -46 -37 -41 -30 4 -39 46
-14 64 23 17 44 7 51 -23z"/>
<path d="M3522 2583 c0 -49 3 -73 5 -55 3 22 10 32 21 32 32 0 62 29 62 60 0
32 -23 50 -64 50 l-26 0 2 -87z m75 51 c9 -24 -10 -49 -41 -52 -24 -3 -26 0
-26 32 0 33 2 36 30 36 19 0 33 -6 37 -16z"/>
<path d="M3650 2585 c0 -50 4 -85 10 -85 6 0 10 30 11 68 l1 67 32 -70 33 -69
26 58 c15 32 27 62 27 67 0 4 3 10 8 12 4 3 6 -26 4 -64 -2 -45 0 -69 7 -69 7
0 11 31 11 85 0 49 -4 85 -10 85 -5 0 -24 -32 -42 -72 l-33 -71 -29 71 c-40
99 -56 95 -56 -13z"/>
<path d="M4230 2590 c0 -47 4 -80 10 -80 6 0 10 33 10 80 0 47 -4 80 -10 80
-6 0 -10 -33 -10 -80z"/>
<path d="M4680 2640 c0 -27 -2 -30 -25 -24 -15 4 -32 1 -40 -6 -18 -15 -20
-71 -3 -88 15 -15 45 -15 54 0 5 8 2 9 -11 5 -38 -15 -63 46 -29 74 25 20 49
-1 49 -44 1 -20 4 -39 8 -43 4 -4 7 29 7 74 0 45 -2 82 -5 82 -3 0 -5 -14 -5
-30z"/>
<path d="M4120 2640 c-29 -29 -27 -94 2 -114 26 -19 64 -21 74 -5 5 8 -1 10
-18 6 -34 -9 -68 17 -68 52 0 40 22 64 59 64 17 0 31 4 31 9 0 16 -60 8 -80
-12z"/>
<path d="M4298 2609 c-21 -12 -24 -69 -6 -87 31 -31 81 -4 81 43 0 47 -36 67
-75 44z m50 -11 c30 -30 -2 -93 -36 -71 -21 13 -27 50 -12 69 15 17 32 18 48
2z"/>
<path d="M4409 2604 c-12 -14 -10 -19 15 -39 31 -25 27 -50 -6 -39 -14 4 -18
2 -14 -5 10 -16 42 -13 57 5 12 14 10 19 -15 39 -28 23 -28 52 0 41 8 -3 14
-1 14 4 0 16 -36 11 -51 -6z"/>
<path d="M4508 2609 c-21 -12 -24 -69 -6 -87 15 -15 55 -16 64 -1 4 8 -1 9
-15 4 -24 -7 -51 9 -51 31 0 10 13 14 40 14 33 0 38 3 33 18 -12 31 -35 39
-65 21z m36 -5 c27 -10 18 -24 -15 -24 -27 0 -30 2 -19 15 14 17 13 17 34 9z"/>
<path d="M3163 2563 c9 -2 25 -2 35 0 9 3 1 5 -18 5 -19 0 -27 -2 -17 -5z"/>
<path d="M2130 2075 c0 -101 18 -115 22 -17 l3 67 26 -65 c15 -35 31 -66 35
-67 5 -2 21 27 36 64 l27 68 0 -67 c1 -54 4 -68 16 -68 12 0 15 16 15 85 0 77
-2 85 -19 85 -13 0 -25 -16 -41 -57 -13 -32 -26 -61 -29 -65 -4 -4 -18 21 -31
57 -17 47 -29 65 -42 65 -16 0 -18 -10 -18 -85z"/>
<path d="M2360 2090 c-41 -41 -11 -105 46 -98 39 4 41 23 2 23 -17 0 -33 6
-35 13 -3 8 8 12 36 12 45 0 51 11 25 48 -19 27 -48 28 -74 2z m58 -17 c2 -8
-6 -13 -22 -13 -25 0 -33 10 -19 24 10 10 36 3 41 -11z"/>
<path d="M2470 2050 c0 -46 3 -60 14 -60 11 0 16 14 18 48 3 39 6 47 23 47 17
0 20 -8 23 -47 2 -34 7 -48 18 -48 17 0 20 71 4 101 -12 21 -40 25 -58 7 -9
-9 -12 -9 -12 0 0 7 -7 12 -15 12 -12 0 -15 -13 -15 -60z"/>
<path d="M2610 2069 c0 -68 34 -101 68 -67 9 9 12 9 12 0 0 -7 7 -12 15 -12
12 0 15 13 15 60 0 46 -3 60 -14 60 -11 0 -16 -14 -18 -47 -3 -40 -6 -48 -23
-48 -17 0 -20 8 -23 48 -2 33 -7 47 -18 47 -10 0 -14 -12 -14 -41z"/>
<path d="M2750 2095 c0 -9 5 -15 11 -13 6 2 11 8 11 13 0 5 -5 11 -11 13 -6 2
-11 -4 -11 -13z"/>
<path d="M2750 2005 c0 -9 5 -15 11 -13 6 2 11 8 11 13 0 5 -5 11 -11 13 -6 2
-11 -4 -11 -13z"/>
<path d="M2870 1720 c0 -53 4 -90 10 -90 6 0 10 20 10 44 0 47 17 70 44 60 12
-4 16 -19 16 -55 0 -27 5 -49 10 -49 13 0 13 76 0 101 -12 21 -40 25 -58 7 -9
-9 -12 -3 -12 30 0 23 -4 42 -10 42 -6 0 -10 -37 -10 -90z"/>
<path d="M3750 1768 c0 -33 -3 -39 -12 -30 -17 17 -42 15 -61 -6 -43 -47 2
-124 53 -92 9 6 17 5 22 -3 4 -7 8 30 8 81 0 50 -2 92 -5 92 -3 0 -5 -19 -5
-42z m0 -78 c0 -40 -34 -59 -61 -34 -24 22 -24 39 1 64 28 28 60 11 60 -30z"/>
<path d="M4940 1720 c0 -53 4 -90 10 -90 6 0 10 20 10 44 0 47 17 70 44 60 12
-4 16 -19 16 -55 0 -27 5 -49 10 -49 13 0 13 76 0 101 -12 21 -40 25 -58 7 -9
-9 -12 -3 -12 30 0 23 -4 42 -10 42 -6 0 -10 -37 -10 -90z"/>
<path d="M5820 1768 c0 -33 -3 -39 -12 -30 -17 17 -42 15 -61 -6 -43 -47 2
-124 53 -92 9 6 17 5 22 -3 4 -7 8 30 8 81 0 50 -2 92 -5 92 -3 0 -5 -19 -5
-42z m0 -78 c0 -40 -34 -59 -61 -34 -24 22 -24 39 1 64 28 28 60 11 60 -30z"/>
<path d="M2139 1782 c-28 -24 -21 -46 26 -73 20 -12 35 -29 35 -40 0 -16 -7
-19 -41 -19 -24 0 -38 -4 -34 -10 10 -16 62 -12 80 6 23 23 15 45 -25 72 -45
30 -46 56 -2 60 18 2 30 8 27 13 -10 15 -41 10 -66 -9z"/>
<path d="M2730 1790 c0 -5 11 -10 25 -10 23 0 24 -3 28 -77 l3 -78 2 78 c2 75
3 77 27 77 14 0 25 5 25 10 0 6 -25 10 -55 10 -30 0 -55 -4 -55 -10z"/>
<path d="M3402 1790 c13 -57 54 -160 62 -160 10 0 66 141 66 165 0 21 -19 -14
-35 -65 -10 -30 -21 -59 -25 -63 -4 -4 -17 20 -30 55 -20 58 -47 105 -38 68z"/>
<path d="M3930 1790 c0 -5 5 -10 10 -10 6 0 10 5 10 10 0 6 -4 10 -10 10 -5 0
-10 -4 -10 -10z"/>
<path d="M4110 1715 l0 -85 34 0 c32 0 66 27 66 52 0 17 -42 48 -65 48 -20 0
-25 5 -25 25 0 21 5 25 31 25 28 0 31 -3 27 -25 -6 -30 8 -34 17 -5 9 30 -12
50 -51 50 l-34 0 0 -85z m75 -35 c0 -21 -5 -26 -32 -28 -31 -3 -33 -1 -33 28
0 29 2 31 33 28 27 -2 32 -7 32 -28z"/>
<path d="M4800 1790 c0 -5 11 -10 25 -10 23 0 24 -3 28 -77 l3 -78 2 78 c2 75
3 77 27 77 14 0 25 5 25 10 0 6 -25 10 -55 10 -30 0 -55 -4 -55 -10z"/>
<path d="M5475 1783 c4 -10 16 -45 27 -78 21 -60 34 -83 42 -74 12 12 64 169
56 169 -5 0 -19 -31 -31 -70 -13 -38 -26 -70 -29 -70 -3 0 -17 32 -30 70 -13
39 -28 70 -33 70 -5 0 -6 -8 -2 -17z"/>
<path d="M6000 1790 c0 -5 5 -10 10 -10 6 0 10 5 10 10 0 6 -4 10 -10 10 -5 0
-10 -4 -10 -10z"/>
<path d="M3141 1768 c0 -10 -6 -18 -12 -18 -8 0 -8 -4 -1 -13 6 -7 12 -33 14
-57 2 -36 7 -45 23 -48 19 -3 19 -2 3 11 -11 9 -18 28 -18 50 0 24 6 39 18 46
15 9 15 10 0 11 -9 0 -19 8 -21 18 -4 16 -5 16 -6 0z"/>
<path d="M4391 1768 c0 -10 -6 -18 -12 -18 -8 0 -8 -4 -1 -13 6 -7 12 -33 14
-57 2 -36 7 -45 23 -48 19 -3 19 -2 3 11 -11 9 -18 28 -18 50 0 24 6 39 18 46
15 9 15 10 0 11 -9 0 -19 8 -21 18 -4 16 -5 16 -6 0z"/>
<path d="M4471 1768 c0 -10 -6 -18 -12 -18 -8 0 -8 -4 -1 -13 6 -7 12 -33 14
-57 2 -36 7 -45 23 -48 19 -3 19 -2 3 11 -11 9 -18 28 -18 50 0 24 6 39 18 46
15 9 15 10 0 11 -9 0 -19 8 -21 18 -4 16 -5 16 -6 0z"/>
<path d="M5211 1768 c0 -10 -6 -18 -12 -18 -8 0 -8 -4 -1 -13 6 -7 12 -33 14
-57 2 -36 7 -45 23 -48 19 -3 19 -2 3 11 -11 9 -18 28 -18 50 0 24 6 39 18 46
15 9 15 10 0 11 -9 0 -19 8 -21 18 -4 16 -5 16 -6 0z"/>
<path d="M2262 1660 c1 -69 3 -83 7 -50 4 28 9 40 14 33 12 -19 41 -16 60 5
43 47 -2 124 -53 92 -9 -6 -17 -5 -22 3 -4 7 -7 -31 -6 -83z m72 64 c21 -21
20 -40 -4 -64 -16 -16 -25 -18 -40 -10 -26 14 -27 65 -2 79 23 14 28 14 46 -5z"/>
<path d="M2403 1690 c0 -36 2 -50 4 -32 2 17 2 47 0 65 -2 17 -4 3 -4 -33z"/>
<path d="M2472 1734 c-27 -19 -29 -64 -4 -87 22 -20 48 -22 58 -5 5 7 2 9 -8
5 -21 -8 -58 20 -58 43 0 23 37 51 56 43 8 -3 14 0 14 6 0 16 -32 13 -58 -5z"/>
<path d="M2550 1746 c0 -2 9 -25 20 -51 11 -26 20 -58 20 -72 0 -16 -7 -27
-20 -30 -23 -6 -27 -23 -5 -23 8 0 21 13 30 29 23 46 57 142 52 147 -2 3 -13
-18 -23 -45 -9 -27 -21 -48 -24 -46 -4 3 -13 25 -20 50 -7 25 -17 45 -21 45
-5 0 -9 -2 -9 -4z"/>
<path d="M3020 1739 c-12 -8 -12 -10 5 -8 55 4 63 -16 13 -29 -25 -6 -34 -14
-36 -34 -4 -31 29 -48 53 -28 11 9 15 9 15 1 0 -6 5 -11 10 -11 14 0 12 94 -2
108 -15 15 -38 15 -58 1z m34 -86 c-13 -9 -21 -10 -31 -1 -19 15 -11 31 18 38
30 8 39 -18 13 -37z"/>
<path d="M3214 1701 c1 -62 21 -85 55 -64 15 10 21 10 24 0 3 -7 5 17 4 53 0
53 -1 57 -4 18 -3 -33 -10 -51 -22 -57 -27 -15 -44 3 -52 56 l-7 48 2 -54z"/>
<path d="M3554 1738 c-5 -8 -2 -9 9 -5 19 7 47 -1 47 -14 0 -5 -15 -12 -32
-17 -25 -6 -34 -14 -36 -34 -4 -31 29 -48 53 -28 11 9 15 9 15 1 0 -6 5 -11
10 -11 13 0 13 76 0 101 -12 21 -55 26 -66 7z m41 -84 c-21 -16 -47 -7 -43 14
4 22 52 33 57 13 2 -8 -5 -20 -14 -27z"/>
<path d="M3820 1739 c-12 -8 -12 -10 5 -8 55 4 63 -16 13 -29 -25 -6 -34 -14
-36 -34 -4 -31 29 -48 53 -28 11 9 15 9 15 1 0 -6 5 -11 10 -11 14 0 12 94 -2
108 -15 15 -38 15 -58 1z m34 -86 c-13 -9 -21 -10 -31 -1 -19 15 -11 31 18 38
30 8 39 -18 13 -37z"/>
<path d="M3933 1690 c0 -36 2 -50 4 -32 2 17 2 47 0 65 -2 17 -4 3 -4 -33z"/>
<path d="M4240 1706 c0 -62 36 -96 68 -64 9 9 12 9 12 0 0 -7 5 -12 10 -12 6
0 10 27 10 60 0 33 -4 60 -10 60 -5 0 -10 -20 -10 -44 0 -47 -17 -70 -44 -60
-12 4 -16 19 -16 55 0 27 -4 49 -10 49 -5 0 -10 -20 -10 -44z"/>
<path d="M4562 1743 c-21 -8 -33 -50 -22 -78 11 -29 51 -42 77 -25 16 10 15
11 -6 6 -29 -6 -61 9 -61 29 0 11 12 15 40 15 32 0 40 4 40 18 0 34 -31 50
-68 35z m58 -33 c0 -6 -16 -10 -35 -10 -38 0 -46 13 -18 29 19 10 53 -2 53
-19z"/>
<path d="M4672 1690 c1 -60 1 -62 7 -20 5 34 12 47 29 55 12 5 22 13 22 17 0
12 -28 9 -36 -3 -4 -8 -9 -7 -15 2 -5 9 -8 -11 -7 -51z"/>
<path d="M5090 1739 c-12 -8 -10 -10 9 -5 14 3 31 0 39 -7 12 -9 8 -13 -19
-22 -44 -15 -59 -39 -37 -62 14 -13 22 -14 42 -5 19 8 26 8 30 -1 2 -7 5 11 5
39 1 67 -27 93 -69 63z m60 -59 c0 -16 -31 -39 -45 -34 -24 9 -18 42 8 46 25
5 37 1 37 -12z"/>
<path d="M5284 1701 c1 -62 21 -85 55 -64 15 10 21 10 24 0 3 -7 5 17 4 53 0
53 -1 57 -4 18 -3 -33 -10 -51 -22 -57 -27 -15 -44 3 -52 56 l-7 48 2 -54z"/>
<path d="M5624 1738 c-5 -8 -2 -9 9 -5 19 7 47 -1 47 -14 0 -5 -15 -12 -32
-17 -25 -6 -34 -14 -36 -34 -4 -31 29 -48 53 -28 11 9 15 9 15 1 0 -6 5 -11
10 -11 13 0 13 76 0 101 -12 21 -55 26 -66 7z m41 -84 c-21 -16 -47 -7 -43 14
4 22 52 33 57 13 2 -8 -5 -20 -14 -27z"/>
<path d="M5890 1739 c-12 -8 -12 -10 5 -8 55 4 63 -16 13 -29 -25 -6 -34 -14
-36 -34 -4 -31 29 -48 53 -28 11 9 15 9 15 1 0 -6 5 -11 10 -11 14 0 12 94 -2
108 -15 15 -38 15 -58 1z m34 -86 c-13 -9 -21 -10 -31 -1 -19 15 -11 31 18 38
30 8 39 -18 13 -37z"/>
<path d="M6003 1690 c0 -36 2 -50 4 -32 2 17 2 47 0 65 -2 17 -4 3 -4 -33z"/>
<path d="M3985 1646 c-3 -9 -7 -23 -10 -31 -2 -8 -2 -15 1 -15 7 0 25 52 20
58 -3 3 -8 -3 -11 -12z"/>
<path d="M2930 1313 c0 -29 -3 -34 -12 -25 -26 26 -68 -1 -68 -43 0 -25 24
-55 43 -55 6 0 1 7 -11 16 -26 18 -29 56 -6 75 34 28 71 -33 42 -68 -7 -10 -8
-14 -1 -10 6 4 14 1 16 -5 3 -7 6 24 6 70 1 45 -1 82 -4 82 -3 0 -5 -17 -5
-37z"/>
<path d="M2132 1263 c0 -43 3 -63 5 -45 6 43 36 44 58 1 9 -17 19 -28 22 -26
3 3 -4 19 -16 35 -18 26 -19 31 -6 42 33 28 6 70 -44 70 -20 0 -21 -5 -19 -77z
m52 61 c32 -12 11 -64 -26 -64 -14 0 -18 8 -18 35 0 36 10 42 44 29z"/>
<path d="M3096 1324 c-9 -8 -15 -25 -15 -37 l2 -22 4 22 c6 28 26 45 47 37 11
-4 17 -20 18 -58 l2 -51 3 48 c6 69 -24 98 -61 61z"/>
<path d="M3206 1324 c-12 -11 -13 -20 -6 -33 5 -10 7 -21 4 -24 -3 -3 3 -3 15
0 12 3 29 -1 39 -8 14 -11 15 -11 5 0 -9 10 -9 18 0 31 8 14 8 22 -2 34 -17
20 -35 20 -55 0z m49 -19 c0 -23 -34 -33 -46 -14 -10 17 9 41 30 37 9 -2 16
-12 16 -23z"/>
<path d="M3355 1329 c-4 -6 -5 -12 -2 -15 2 -3 7 2 10 11 7 17 1 20 -8 4z"/>
<path d="M3437 1325 c15 -11 23 -28 26 -58 l4 -42 1 42 c2 41 -16 73 -41 73
-6 0 -2 -7 10 -15z"/>
<path d="M3538 1330 c31 -13 26 -52 -8 -61 -22 -6 -22 -7 -4 -8 12 -1 27 -8
34 -16 18 -22 -6 -48 -38 -42 -16 3 -20 1 -13 -6 13 -13 57 -1 65 20 4 9 0 23
-8 31 -11 12 -12 19 -3 33 15 23 -1 53 -29 56 -14 2 -13 0 4 -7z"/>
<path d="M3738 1330 c13 -6 22 -19 23 -32 1 -18 2 -19 6 -5 6 22 -14 47 -36
46 -11 0 -9 -3 7 -9z"/>
<path d="M3857 1325 c15 -11 23 -28 26 -58 l4 -42 1 42 c2 41 -16 73 -41 73
-6 0 -2 -7 10 -15z"/>
<path d="M3937 1333 c-3 -5 8 -8 25 -9 20 -1 25 2 16 7 -16 11 -35 11 -41 2z"/>
<path d="M4050 1332 c0 -5 14 -7 30 -4 17 2 30 6 30 8 0 2 -13 4 -30 4 -16 0
-30 -4 -30 -8z"/>
<path d="M4298 1333 c-2 -5 0 -39 3 -78 l5 -70 2 78 c2 70 -1 90 -10 70z"/>
<path d="M4393 1333 c20 -2 37 -9 37 -14 0 -6 5 -7 10 -4 23 14 7 25 -37 23
-44 -1 -45 -2 -10 -5z"/>
<path d="M4537 1333 c-3 -5 8 -8 25 -9 20 -1 25 2 16 7 -16 11 -35 11 -41 2z"/>
<path d="M4649 1324 c-10 -12 -10 -20 -2 -34 9 -13 9 -21 0 -31 -10 -11 -9
-11 5 0 9 7 25 10 35 7 15 -5 19 0 21 26 4 45 -32 64 -59 32z m49 -22 c3 -16
-2 -22 -17 -22 -24 0 -35 15 -27 36 9 23 40 13 44 -14z"/>
<path d="M4838 1330 c13 -6 22 -19 23 -32 1 -18 2 -19 6 -5 6 22 -14 47 -36
46 -11 0 -9 -3 7 -9z"/>
<path d="M4933 1333 c41 -4 41 -4 23 -58 -4 -11 2 -4 13 15 11 19 20 38 21 43
0 4 -21 6 -47 5 -46 -1 -46 -2 -10 -5z"/>
<path d="M3395 1319 c-4 -6 -5 -12 -2 -15 2 -3 7 2 10 11 7 17 1 20 -8 4z"/>
<path d="M3815 1319 c-4 -6 -5 -12 -2 -15 2 -3 7 2 10 11 7 17 1 20 -8 4z"/>
<path d="M2672 1304 c-7 -8 -8 -14 -2 -14 5 0 10 -17 10 -38 0 -37 14 -62 35
-62 5 0 2 5 -7 11 -12 7 -18 22 -18 49 0 31 4 40 18 41 13 0 14 2 2 6 -8 3
-17 9 -20 13 -3 4 -11 2 -18 -6z"/>
<path d="M3646 1295 c-9 -26 -7 -32 5 -12 6 10 9 21 6 23 -2 3 -7 -2 -11 -11z"/>
<path d="M3991 1299 c-1 -8 -17 -30 -36 -49 -47 -46 -46 -60 8 -58 l42 1 -37
4 c-21 2 -38 7 -38 11 0 3 16 23 36 43 20 21 34 43 31 51 -4 10 -6 9 -6 -3z"/>
<path d="M4591 1299 c-1 -8 -17 -30 -36 -49 -47 -46 -46 -60 8 -58 l42 1 -37
4 c-21 2 -38 7 -38 11 0 3 16 23 36 43 20 21 34 43 31 51 -4 10 -6 9 -6 -3z"/>
<path d="M2266 1292 c-3 -5 4 -8 16 -8 12 1 23 -5 26 -13 3 -10 -4 -12 -32 -9
-32 3 -36 1 -36 -18 0 -38 48 -71 65 -44 3 6 -1 7 -10 4 -18 -7 -45 12 -45 32
0 9 12 14 35 14 22 0 35 5 35 13 0 27 -41 49 -54 29z"/>
<path d="M2385 1290 c-4 -6 1 -7 11 -3 11 4 22 -1 30 -12 8 -10 14 -14 14 -9
0 26 -42 44 -55 24z"/>
<path d="M2530 1287 c13 -7 27 -23 31 -37 6 -22 7 -22 8 -4 1 23 -28 54 -50
54 -8 0 -3 -6 11 -13z"/>
<path d="M2603 1245 c0 -33 2 -45 4 -27 2 18 2 45 0 60 -2 15 -4 0 -4 -33z"/>
<path d="M2630 1290 c-13 -8 -12 -10 3 -10 9 0 17 5 17 10 0 12 -1 12 -20 0z"/>
<path d="M2766 1292 c-3 -5 4 -8 16 -8 12 1 23 -5 26 -13 3 -10 -4 -12 -32 -9
-32 3 -36 1 -36 -18 0 -38 48 -71 65 -44 3 6 -1 7 -10 4 -18 -7 -45 12 -45 32
0 9 12 14 35 14 22 0 35 5 35 13 0 27 -41 49 -54 29z"/>
<path d="M4040 1289 c0 -10 11 -19 30 -22 41 -9 43 -51 3 -65 -16 -6 -22 -11
-15 -11 53 -3 72 61 25 82 -16 6 -31 16 -35 22 -5 6 -8 3 -8 -6z"/>
<path d="M3382 1265 c0 -16 2 -22 5 -12 2 9 2 23 0 30 -3 6 -5 -1 -5 -18z"/>
<path d="M3802 1265 c0 -16 2 -22 5 -12 2 9 2 23 0 30 -3 6 -5 -1 -5 -18z"/>
<path d="M2361 1264 c0 -11 3 -14 6 -6 3 7 2 16 -1 19 -3 4 -6 -2 -5 -13z"/>
<path d="M4406 1265 c-9 -26 -7 -32 5 -12 6 10 9 21 6 23 -2 3 -7 -2 -11 -11z"/>
<path d="M2471 1244 c0 -11 3 -14 6 -6 3 7 2 16 -1 19 -3 4 -6 -2 -5 -13z"/>
<path d="M3081 1243 c-1 -20 22 -53 37 -53 4 0 14 5 22 11 12 8 11 9 -6 4 -23
-6 -39 8 -47 40 -4 19 -5 18 -6 -2z"/>
<path d="M3191 1232 c-1 -15 7 -26 24 -34 22 -10 28 -9 43 7 16 18 16 18 0 6
-23 -17 -56 -5 -61 22 l-4 22 -2 -23z"/>
<path d="M3709 1233 c-13 -16 -12 -17 4 -4 16 13 21 21 13 21 -2 0 -10 -8 -17
-17z"/>
<path d="M4710 1231 c0 -31 -40 -38 -62 -11 -10 12 -18 18 -18 13 0 -6 9 -18
20 -28 17 -15 24 -16 45 -7 15 7 25 20 25 32 0 11 -2 20 -5 20 -3 0 -5 -9 -5
-19z"/>
<path d="M4809 1233 c-13 -16 -12 -17 4 -4 9 7 17 15 17 17 0 8 -8 3 -21 -13z"/>
<path d="M2430 1221 c0 -6 -10 -16 -22 -21 -16 -6 -18 -9 -7 -9 19 -1 45 26
35 36 -3 3 -6 1 -6 -6z"/>
<path d="M3306 1215 c-9 -26 -7 -32 5 -12 6 10 9 21 6 23 -2 3 -7 -2 -11 -11z"/>
<path d="M3392 1221 c8 -29 36 -37 55 -17 17 18 17 18 -5 5 -21 -12 -25 -12
-39 6 -8 11 -13 14 -11 6z"/>
<path d="M3812 1221 c8 -29 36 -37 55 -17 17 18 17 18 -5 5 -21 -12 -25 -12
-39 6 -8 11 -13 14 -11 6z"/>
<path d="M4391 1214 c0 -11 3 -14 6 -6 3 7 2 16 -1 19 -3 4 -6 -2 -5 -13z"/>
<path d="M2489 1207 c7 -10 21 -17 31 -17 10 0 24 7 31 17 13 15 12 15 -8 2
-20 -12 -26 -12 -45 0 -21 13 -22 13 -9 -2z"/>
<path d="M4931 1204 c0 -11 3 -14 6 -6 3 7 2 16 -1 19 -3 4 -6 -2 -5 -13z"/>
<path d="M3690 1199 c0 -5 21 -9 47 -9 25 0 44 2 42 4 -10 8 -89 13 -89 5z"/>
<path d="M4790 1199 c0 -5 21 -9 47 -9 25 0 44 2 42 4 -10 8 -89 13 -89 5z"/>
</g>
</svg>
